<svg width="175" height="224" viewBox="0 0 175 224" fill="none" xmlns="http://www.w3.org/2000/svg">
<rect x="2.65502" y="42.9722" width="96" height="96" transform="rotate(-24.8328 2.65502 42.9722)" fill="white" stroke="black" stroke-width="4"/>
<path d="M73.013 68.8131C74.1727 71.3192 73.0813 74.2909 70.5752 75.4506C68.0691 76.6103 65.0973 75.5189 63.9376 73.0128C62.7779 70.5067 63.8694 67.535 66.3755 66.3752C68.8816 65.2155 71.8533 66.307 73.013 68.8131Z" fill="black"/>
<circle cx="103.41" cy="84.4974" r="5" transform="rotate(-24.8328 103.41 84.4974)" fill="black"/>
<rect x="44.6522" y="133.726" width="96" height="96" transform="rotate(-24.8328 44.6522 133.726)" fill="white" stroke="black" stroke-width="4"/>
<circle cx="78.6123" cy="149.965" r="5" transform="rotate(-24.8328 78.6123 149.965)" fill="black"/>
<path d="M115.01 159.567C116.17 162.073 115.078 165.045 112.572 166.205C110.066 167.364 107.094 166.273 105.935 163.767C104.775 161.261 105.866 158.289 108.373 157.129C110.879 155.969 113.85 157.061 115.01 159.567Z" fill="black"/>
<rect x="39" y="17" width="96" height="96" fill="white" stroke="black" stroke-width="4"/>
<circle cx="63" cy="46" r="5" fill="black"/>
<path d="M92 70C92 72.7614 89.7614 75 87 75C84.2386 75 82 72.7614 82 70C82 67.2386 84.2386 65 87 65C89.7614 65 92 67.2386 92 70Z" fill="black"/>
<circle cx="113" cy="97" r="5" fill="black"/>
<rect x="39" y="117" width="96" height="96" fill="white" stroke="black" stroke-width="4"/>
<circle cx="63" cy="146" r="5" fill="black"/>
<path d="M92 170C92 172.761 89.7614 175 87 175C84.2386 175 82 172.761 82 170C82 167.239 84.2386 165 87 165C89.7614 165 92 167.239 92 170Z" fill="black"/>
<circle cx="113" cy="197" r="5" fill="black"/>
</svg>
