<svg width="175" height="224" viewBox="0 0 175 224" fill="none" xmlns="http://www.w3.org/2000/svg">
<rect x="2.65502" y="42.9722" width="96" height="96" transform="rotate(-24.8328 2.65502 42.9722)" fill="black" stroke="white" stroke-width="4"/>
<path d="M72.5592 69.0231C73.603 71.2785 72.6207 73.9531 70.3652 74.9968C68.1097 76.0406 65.4351 75.0583 64.3914 72.8028C63.3476 70.5473 64.33 67.8728 66.5854 66.829C68.8409 65.7853 71.5155 66.7676 72.5592 69.0231Z" fill="black" stroke="white"/>
<circle cx="103.41" cy="84.4974" r="4.5" transform="rotate(-24.8328 103.41 84.4974)" fill="black" stroke="white"/>
<rect x="44.6522" y="133.726" width="96" height="96" transform="rotate(-24.8328 44.6522 133.726)" fill="black" stroke="white" stroke-width="4"/>
<circle cx="78.6123" cy="149.965" r="4.5" transform="rotate(-24.8328 78.6123 149.965)" fill="black" stroke="white"/>
<path d="M114.556 159.777C115.6 162.032 114.618 164.707 112.362 165.751C110.107 166.795 107.432 165.812 106.388 163.557C105.345 161.301 106.327 158.627 108.583 157.583C110.838 156.539 113.513 157.521 114.556 159.777Z" fill="black" stroke="white"/>
<rect x="39" y="17" width="96" height="96" fill="black" stroke="white" stroke-width="4"/>
<circle cx="63" cy="46" r="4.5" fill="white" stroke="white"/>
<path d="M91.5 70C91.5 72.4853 89.4853 74.5 87 74.5C84.5147 74.5 82.5 72.4853 82.5 70C82.5 67.5147 84.5147 65.5 87 65.5C89.4853 65.5 91.5 67.5147 91.5 70Z" fill="white" stroke="white"/>
<circle cx="113" cy="97" r="4.5" fill="white" stroke="white"/>
<rect x="39" y="117" width="96" height="96" fill="black" stroke="white" stroke-width="4"/>
<circle cx="63" cy="146" r="4.5" fill="white" stroke="white"/>
<path d="M91.5 170C91.5 172.485 89.4853 174.5 87 174.5C84.5147 174.5 82.5 172.485 82.5 170C82.5 167.515 84.5147 165.5 87 165.5C89.4853 165.5 91.5 167.515 91.5 170Z" fill="white" stroke="white"/>
<circle cx="113" cy="197" r="4.5" fill="white" stroke="white"/>
</svg>
