<?xml version="1.0" encoding="iso-8859-1"?>
<!-- Uploaded to: SVG Repo, www.svgrepo.com, Generator: SVG Repo Mixer Tools -->
<svg fill="#000000" height="800px" width="800px" version="1.1" id="Layer_1" xmlns="http://www.w3.org/2000/svg" xmlns:xlink="http://www.w3.org/1999/xlink" 
	 viewBox="0 0 512.002 512.002" xml:space="preserve">
<g>
	<g>
		<path d="M508.012,371.606L405.334,227.841V42.668c0-11.776-9.557-21.333-21.333-21.333h-256c-11.776,0-21.333,9.557-21.333,21.333
			v9.259l-96.32,57.792c-5.099,3.051-8.683,8.107-9.899,13.931c-1.216,5.845,0.064,11.904,3.52,16.747l102.699,143.787v185.152
			c0,11.776,9.557,21.333,21.333,21.333h256c11.776,0,21.333-9.557,21.333-21.333v-9.259l96.32-57.771
			c5.099-3.072,8.683-8.128,9.899-13.952C512.769,382.508,511.489,376.449,508.012,371.606z M106.668,210.774l-54.549-76.373
			l54.549-32.725V210.774z M320.001,170.668c11.776,0,21.333,9.557,21.333,21.333s-9.557,21.333-21.333,21.333
			s-21.333-9.557-21.333-21.333S308.225,170.668,320.001,170.668z M256.001,128.001c11.776,0,21.333,9.557,21.333,21.333
			s-9.557,21.333-21.333,21.333s-21.333-9.557-21.333-21.333S244.225,128.001,256.001,128.001z M192.001,85.334
			c11.776,0,21.333,9.557,21.333,21.333s-9.557,21.333-21.333,21.333s-21.333-9.557-21.333-21.333S180.225,85.334,192.001,85.334z
			 M192.001,341.334c-11.776,0-21.333-9.557-21.333-21.333s9.557-21.333,21.333-21.333s21.333,9.557,21.333,21.333
			S203.777,341.334,192.001,341.334z M256.001,384.001c-11.776,0-21.333-9.557-21.333-21.333s9.557-21.333,21.333-21.333
			s21.333,9.557,21.333,21.333S267.777,384.001,256.001,384.001z M320.001,426.668c-11.776,0-21.333-9.557-21.333-21.333
			s9.557-21.333,21.333-21.333s21.333,9.557,21.333,21.333S331.777,426.668,320.001,426.668z M405.334,410.326V301.249
			l54.549,76.352L405.334,410.326z"/>
	</g>
</g>
</svg>